<?xml version="1.0" standalone="no"?>
<!DOCTYPE svg PUBLIC "-//W3C//DTD SVG 1.1//EN" "http://www.w3.org/Graphics/SVG/1.1/DTD/svg11.dtd" >
<!--
2016-6-22: Created.
-->
<svg xmlns="http://www.w3.org/2000/svg">
<metadata>
Created by FontForge 20120731 at Wed Jun 22 15:38:53 2016
 By root
Created by root with FontForge 2.0 (http://fontforge.sf.net)
</metadata>
<defs>
<font id="Flaticon" horiz-adv-x="512" >
  <font-face 
    font-family="Flaticon"
    font-weight="500"
    font-stretch="normal"
    units-per-em="512"
    panose-1="2 0 6 3 0 0 0 0 0 0"
    ascent="448"
    descent="-64"
    bbox="0 -64.001 512.001 448"
    underline-thickness="25.6"
    underline-position="-51.2"
    unicode-range="U+0020-F135"
  />
    <missing-glyph />
    <glyph glyph-name="space" unicode=" " horiz-adv-x="200" 
 />
    <glyph glyph-name="uniF128" unicode="&#xf128;" 
d="M235.47 55.7539v272.492h41.0605v-272.492h-41.0605zM256 448c141.158 0 256 -114.841 256 -256s-114.841 -256 -256 -256s-256 114.841 -256 256s114.841 256 256 256zM256 -22.9375c118.517 0 214.939 96.4189 214.939 214.938s-96.4209 214.939 -214.939 214.939
s-214.939 -96.4229 -214.939 -214.939s96.4209 -214.938 214.939 -214.938z" />
    <glyph glyph-name="uniF100" unicode="&#xf100;" 
d="M0 336.105v50.8613h512v-50.8613h-512zM0 -2.9668v50.8613h512v-50.8613h-512zM0 166.569v50.8613h512v-50.8613h-512z" />
    <glyph glyph-name="uniF112" unicode="&#xf112;" 
d="M439.279 403.067v-106.421h-23.6484v-360.646h-319.262v360.646h-23.6484v106.421h116.334v44.9326h133.891v-44.9326h116.334zM224.528 412.526v-9.45898h62.9424v9.45898h-62.9424zM108.194 367.594v-35.4736h295.611v35.4736h-295.611zM285.562 296.646h-59.123
v-325.173h59.123v325.173zM131.843 296.646v-325.173h59.123v325.173h-59.123zM380.157 -28.5264v325.173h-59.123v-325.173h59.123z" />
    <glyph glyph-name="uniF130" unicode="&#xf130;" 
d="M203.719 192c0 28.8281 23.4531 52.2812 52.2812 52.2812s52.2812 -23.4531 52.2812 -52.2812s-23.4531 -52.2812 -52.2812 -52.2812s-52.2812 23.4531 -52.2812 52.2812zM507.457 199.854l4.54297 -7.85352l-4.54297 -7.85352
c-25.0674 -43.332 -61.1133 -79.6738 -104.24 -105.098c-44.4111 -26.1797 -95.2744 -40.0264 -147.1 -40.0469c-0.0400391 0 -0.0771484 -0.000976562 -0.117188 -0.000976562s-0.078125 0.000976562 -0.117188 0.000976562
c-51.8252 0.0205078 -102.688 13.8672 -147.1 40.0469c-43.127 25.4238 -79.1719 61.7666 -104.24 105.098l-4.54297 7.85352l4.54297 7.85352c25.0674 43.332 61.1133 79.6738 104.24 105.098c44.4111 26.1797 95.2744 40.0264 147.1 40.0469l0.117188 0.000976562
l0.117188 -0.000976562c51.8252 -0.0205078 102.688 -13.8672 147.1 -40.0469c43.127 -25.4238 79.1719 -61.7666 104.24 -105.098zM377.631 192c0 67.0303 -54.5039 121.568 -121.52 121.63l-0.112305 0.000976562l-0.112305 -0.000976562
c-67.0156 -0.0605469 -121.52 -54.5996 -121.52 -121.63s54.5039 -121.568 121.52 -121.63l0.112305 -0.000976562l0.112305 0.000976562c67.0156 0.0615234 121.52 54.5996 121.52 121.63zM36.4287 192c23.9863 -38.2559 57.3096 -69.043 95.9795 -90.0742
c-18.4805 25.2871 -29.4072 56.4258 -29.4072 90.0742s10.9277 64.7871 29.4072 90.0742c-38.6699 -21.0312 -71.9932 -51.8174 -95.9795 -90.0742zM379.593 101.926c38.6689 21.0312 71.9922 51.8184 95.9795 90.0742c-23.9873 38.2568 -57.3105 69.043 -95.9795 90.0742
c18.4805 -25.2871 29.4072 -56.4258 29.4072 -90.0742s-10.9277 -64.7871 -29.4072 -90.0742z" />
    <glyph glyph-name="uniF11C" unicode="&#xf11c;" 
d="M324.085 379.915c103.617 0 187.915 -84.2979 187.915 -187.915s-84.2979 -187.915 -187.915 -187.915c-35.6475 0 -70.3408 10.0312 -100.333 29.0078c-29.166 18.4541 -52.6885 44.5186 -68.0254 75.3789l29.2656 14.5459
c26.4414 -53.2021 79.7393 -86.252 139.093 -86.252c85.5967 0 155.234 69.6377 155.234 155.234s-69.6377 155.234 -155.234 155.234c-59.3535 0 -112.651 -33.0498 -139.093 -86.252l-29.2656 14.5459c15.3369 30.8594 38.8594 56.9248 68.0254 75.3789
c29.9922 18.9766 64.6855 29.0078 100.333 29.0078zM247.17 138.192l37.4658 37.4668h-284.636v32.6816h284.636l-37.4658 37.4668l23.1074 23.1074l76.916 -76.915l-76.916 -76.915z" />
    <glyph glyph-name="uniF120" unicode="&#xf120;" 
d="M0 327.809c0 13.5814 6.79036 20.3721 20.3711 20.3721c13.5814 0 20.3721 -6.79068 20.3721 -20.3721c0 -13.5807 -6.79069 -20.3711 -20.3721 -20.3711c-13.5807 0 -20.3711 6.79037 -20.3711 20.3711zM101.856 307.438v40.7432h410.144v-40.7432h-410.144zM0 56.1914
c0 13.5807 6.79036 20.3711 20.3711 20.3711c13.5814 0 20.3721 -6.79037 20.3721 -20.3711c0 -13.5814 -6.79069 -20.3721 -20.3721 -20.3721c-13.5807 0 -20.3711 6.79069 -20.3711 20.3721zM101.856 35.8193v40.7432h410.144v-40.7432h-410.144zM0 192
c0 13.5807 6.79036 20.3711 20.3711 20.3711c13.5814 0 20.3721 -6.79036 20.3721 -20.3711s-6.79069 -20.3711 -20.3721 -20.3711c-13.5807 0 -20.3711 6.79036 -20.3711 20.3711zM101.856 171.629v40.7422h410.144v-40.7422h-410.144z" />
    <glyph glyph-name="uniF121" unicode="&#xf121;" 
d="M0 286.463v33.3398h335.619v-33.3398h-335.619zM373.166 223.257l138.834 -0.00195312l-69.416 -69.415zM0 64.1982v33.3398h335.619v-33.3398h-335.619zM0 175.331v33.3389h335.619v-33.3389h-335.619z" />
    <glyph glyph-name="uniF122" unicode="&#xf122;" 
d="M194.207 -64v123.586h123.586v-123.586h-123.586zM194.207 130.207v123.586h123.586v-123.586h-123.586zM194.207 324.414v123.586h123.586v-123.586h-123.586z" />
    <glyph glyph-name="uniF123" unicode="&#xf123;" 
d="M450.207 253.793c34.0723 0 61.793 -27.7207 61.793 -61.793s-27.7207 -61.793 -61.793 -61.793c-34.0732 0 -61.793 27.7207 -61.793 61.793s27.7197 61.793 61.793 61.793zM61.793 253.793c34.0732 0 61.793 -27.7207 61.793 -61.793s-27.7197 -61.793 -61.793 -61.793
c-34.0723 0 -61.793 27.7207 -61.793 61.793s27.7207 61.793 61.793 61.793zM256 253.793c34.0723 0 61.793 -27.7207 61.793 -61.793s-27.7207 -61.793 -61.793 -61.793s-61.793 27.7207 -61.793 61.793s27.7207 61.793 61.793 61.793z" />
    <glyph glyph-name="uniF124" unicode="&#xf124;" 
d="M372.124 228.948c20.373 0 36.9482 -16.5752 36.9482 -36.9482s-16.5752 -36.9482 -36.9482 -36.9482c-20.374 0 -36.9492 16.5752 -36.9492 36.9482s16.5752 36.9482 36.9492 36.9482zM139.876 228.948c20.374 0 36.9492 -16.5752 36.9492 -36.9482
s-16.5752 -36.9482 -36.9492 -36.9482c-20.373 0 -36.9482 16.5752 -36.9482 36.9482s16.5752 36.9482 36.9482 36.9482zM256 228.948c20.373 0 36.9482 -16.5752 36.9482 -36.9482s-16.5752 -36.9482 -36.9482 -36.9482s-36.9482 16.5752 -36.9482 36.9482
s16.5752 36.9482 36.9482 36.9482zM437.02 373.02c48.3516 -48.3525 74.9805 -112.64 74.9805 -181.02s-26.6289 -132.667 -74.9805 -181.02c-48.3525 -48.3516 -112.64 -74.9805 -181.02 -74.9805s-132.667 26.6289 -181.02 74.9805
c-48.3516 48.3525 -74.9805 112.64 -74.9805 181.02s26.6289 132.667 74.9805 181.02c48.3525 48.3516 112.64 74.9805 181.02 74.9805s132.667 -26.6289 181.02 -74.9805zM256 -32.3301c123.696 0 224.33 100.634 224.33 224.33s-100.634 224.33 -224.33 224.33
s-224.33 -100.634 -224.33 -224.33s100.634 -224.33 224.33 -224.33z" />
    <glyph glyph-name="uniF125" unicode="&#xf125;" 
d="M0 -64v123.586h123.586v-123.586h-123.586zM0 130.207v123.586h123.586v-123.586h-123.586zM0 324.414v123.586h123.586v-123.586h-123.586zM194.207 -64v123.586h123.586v-123.586h-123.586zM194.207 130.207v123.586h123.586v-123.586h-123.586zM194.207 324.414
v123.586h123.586v-123.586h-123.586zM388.414 -64v123.586h123.586v-123.586h-123.586zM388.414 130.207v123.586h123.586v-123.586h-123.586zM388.414 324.414v123.586h123.586v-123.586h-123.586z" />
    <glyph glyph-name="uniF126" unicode="&#xf126;" 
d="M291.311 448h220.689v-220.689h-220.689v220.689zM459.034 280.275v114.759h-114.759v-114.759h114.759zM0 227.311v220.689h220.689v-220.689h-220.689zM52.9658 395.034v-114.759h114.759v114.759h-114.759zM0 -64v220.689h220.689v-220.689h-220.689zM52.9658 103.725
v-114.759h114.759v114.759h-114.759zM291.311 -64v220.689h220.689v-220.689h-220.689zM344.275 103.725v-114.759h114.759v114.759h-114.759z" />
    <glyph glyph-name="uniF12B" unicode="&#xf12b;" 
d="M512 155.914l-0.000976562 -205.576l-79.5352 79.1553c-18.4932 -21.0098 -40.8369 -38.6377 -65.583 -51.5781c-32.2305 -16.8555 -68.6152 -25.7646 -105.217 -25.7646c-125.362 0 -227.351 101.988 -227.351 227.351h37.501
c0 -104.684 85.166 -189.849 189.85 -189.849c55.4795 0 108.268 24.5469 144.166 66.3467l-100.395 99.915h206.564zM474.499 40.5674v77.8447h-78.2207zM106.169 328.002l100.396 -99.916h-206.564v205.577l79.5352 -79.1553
c18.4932 21.0098 40.8379 38.6377 65.584 51.5781c32.2314 16.8555 68.6152 25.7646 105.217 25.7646c125.362 0 227.351 -101.988 227.351 -227.351h-37.502c0 104.684 -85.166 189.85 -189.849 189.85c-55.4785 0 -108.268 -24.5469 -144.167 -66.3477zM37.501 343.433
v-77.8447h78.2188z" />
    <glyph glyph-name="uniF12D" unicode="&#xf12d;" 
d="M441.457 173.732c45.1943 -45.1934 70.2461 -105.277 70.5439 -169.184l-39.7295 -0.185547c-0.248047 53.3633 -21.168 103.537 -58.9062 141.276c-41.5615 41.5605 -99.4932 62.7188 -157.702 58.2969l0.358398 -150.06l-154.742 154.744l154.002 154.004
l0.285156 -118.88c29.5918 1.88281 59.5381 -1.64941 87.7676 -10.4912c36.7734 -11.5195 70.7041 -32.1006 98.123 -59.5215zM157.464 208.621l58.5967 -58.5967l-0.279297 116.912zM198.952 351.544l-142.834 -142.836l142.869 -143.554l-28.1611 -28.0254
l-170.826 171.647l170.861 170.86z" />
    <glyph glyph-name="uniF11E" unicode="&#xf11e;" 
d="M332.2 371.801c99.1426 0 179.8 -80.6602 179.8 -179.803c0 -99.1416 -80.6572 -179.8 -179.8 -179.8c-34.1074 0 -67.3047 9.59766 -96.001 27.7549c-27.9043 17.6572 -50.4111 42.5977 -65.0869 72.125l28.002 13.918
c25.2998 -50.9053 76.2959 -82.5273 133.086 -82.5273c81.9004 0 148.53 66.6309 148.53 148.53c0 81.9004 -66.6299 148.53 -148.53 148.53c-56.791 0 -107.787 -31.6211 -133.086 -82.5264l-28.002 13.918c14.6758 29.5273 37.1826 54.4678 65.0869 72.125
c28.6973 18.1572 61.8936 27.7549 96.001 27.7549zM332.2 176.366h-272.345l35.8486 -35.8496l-22.1104 -22.1113l-73.5938 73.5938l73.5938 73.5957l22.1104 -22.1113l-35.8477 -35.8477h272.344v-31.2695z" />
    <glyph glyph-name="uniF10F" unicode="&#xf10f;" 
d="M330.537 96.3496l-74.5371 -74.5371l-74.5371 74.5371l22.3936 22.3936l36.3086 -36.3076v357.646h31.6699v-357.646l36.3086 36.3076zM0 -56.082v31.6699h512v-31.6699h-512z" />
    <glyph glyph-name="uniF11D" unicode="&#xf11d;" 
d="M152.4 444.762h359.6v-505.524h-359.6v179.8h31.2695v-148.53h297.061v442.985h-297.061v-148.53h-31.2695v179.8zM332.2 176.364h-272.344l35.8496 -35.8477l-22.1113 -22.1113l-73.5947 73.5938l73.5947 73.5957l22.1113 -22.1113l-35.8486 -35.8496h272.343v-31.2695z
" />
    <glyph glyph-name="uniF103" unicode="&#xf103;" 
d="M415.48 237.284c54.3672 -6.97559 96.5195 -53.5469 96.5195 -109.778c0 -61.0283 -49.6504 -110.679 -110.68 -110.679h-290.641c-61.0293 0 -110.68 49.6504 -110.68 110.679c0 56.2314 42.1514 102.803 96.5195 109.778
c15.3516 74.9443 81.6309 129.891 159.481 129.891c77.8496 0 144.128 -54.9463 159.479 -129.891zM401.32 49.7793c42.8594 0 77.7266 34.8682 77.7266 77.7266c0 42.8594 -34.8721 77.7275 -77.7324 77.7275h-14.6445l-1.71777 14.543
c-7.70898 65.2441 -63.1465 114.445 -128.953 114.445c-65.8057 0 -121.243 -49.2012 -128.952 -114.445l-1.71777 -14.543h-14.6445c-42.8623 0 -77.7324 -34.8682 -77.7324 -77.7275c0 -42.8584 34.8682 -77.7266 77.7275 -77.7266h290.641z" />
    <glyph glyph-name="uniF117" unicode="&#xf117;" 
d="M512 216.309h-221.402l107.607 107.094c-38.4805 44.8008 -95.0605 71.1123 -154.523 71.1123c-112.203 0 -203.486 -91.2842 -203.486 -203.486s91.2832 -203.486 203.487 -203.486c78.5684 0 148.734 43.9219 183.114 114.625l36.1475 -17.5781
c-19.7031 -40.5176 -50.2266 -74.7773 -88.2695 -99.0723c-39.1016 -24.9707 -84.3975 -38.1699 -130.993 -38.1699c-134.367 0 -243.682 109.315 -243.682 243.682c0 134.367 109.314 243.682 243.683 243.682c39.2305 0 78.2275 -9.54883 112.775 -27.6152
c26.5225 -13.8701 50.4717 -32.7656 70.2939 -55.2832l85.248 84.8418v-220.345zM471.805 256.504v83.4365l-83.8379 -83.4365h83.8379z" />
    <glyph glyph-name="uniF116" unicode="&#xf116;" 
d="M507.457 184.146c-25.0674 -43.332 -61.1133 -79.6738 -104.24 -105.098c-2.54688 -1.50098 -5.11816 -2.95801 -7.70703 -4.37793l109.462 -109.461l-22.1816 -22.1816l-117.347 117.347c-34.5312 -14.0381 -71.6729 -21.3584 -109.326 -21.373
c-0.0400391 0 -0.0771484 -0.000976562 -0.117188 -0.000976562s-0.078125 0.000976562 -0.117188 0.000976562c-51.8252 0.0205078 -102.688 13.8672 -147.1 40.0469c-43.127 25.4238 -79.1719 61.7666 -104.24 105.098l-4.54297 7.85352l4.54297 7.85352
c25.0674 43.332 61.1133 79.6738 104.24 105.098c2.54688 1.50098 5.11816 2.95801 7.70703 4.37793l-109.461 109.46l22.1816 22.1816l117.346 -117.346c34.5312 14.0381 71.6729 21.3584 109.326 21.373l0.117188 0.000976562l0.117188 -0.000976562
c51.8252 -0.0205078 102.688 -13.8672 147.1 -40.0469c43.127 -25.4238 79.1719 -61.7666 104.24 -105.098l4.54297 -7.85352zM475.571 192c-23.9863 38.2568 -57.3096 69.043 -95.9795 90.0742c18.4805 -25.2871 29.4072 -56.4258 29.4072 -90.0742
s-10.9277 -64.7871 -29.4072 -90.0742c38.6699 21.0312 71.9932 51.8184 95.9795 90.0742zM256 70.3691c0.0380859 0 0.0742188 0.000976562 0.109375 0.00390625c27.8496 0.0244141 53.5322 9.46289 74.0469 25.29l-49.9971 49.9971
c-7.23145 -3.78613 -15.4473 -5.94043 -24.1602 -5.94043c-28.8281 0 -52.2812 23.4531 -52.2812 52.2812c0 8.71289 2.15332 16.9287 5.94043 24.1602l-49.9971 49.9971c-15.8496 -20.543 -25.293 -46.2656 -25.293 -74.1582c0 -67.0303 54.5039 -121.568 121.52 -121.63z
M256 313.631l-0.109375 -0.00390625c-27.8496 -0.0244141 -53.5322 -9.46289 -74.0469 -25.29l49.9971 -49.9971c7.23145 3.78613 15.4473 5.94043 24.1602 5.94043c28.8281 0 52.2812 -23.4531 52.2812 -52.2812c0 -8.71289 -2.15332 -16.9287 -5.94043 -24.1602
l49.9971 -49.9971c15.8496 20.543 25.293 46.2656 25.293 74.1582c0 67.0303 -54.5039 121.568 -121.52 121.63zM36.4287 192c23.9863 -38.2559 57.3096 -69.043 95.9795 -90.0742c-18.4805 25.2871 -29.4072 56.4258 -29.4072 90.0742s10.9277 64.7871 29.4072 90.0742
c-38.6699 -21.0312 -71.9932 -51.8174 -95.9795 -90.0742z" />
    <glyph glyph-name="uniF11F" unicode="&#xf11f;" 
d="M101.856 307.438v40.7432h410.144v-40.7432h-410.144zM0 307.438v40.7432h40.7432v-40.7432h-40.7432zM0 35.8193v40.7432h40.7432v-40.7432h-40.7432zM101.856 35.8193v40.7432h410.144v-40.7432h-410.144zM0 171.629v40.7422h40.7432v-40.7422h-40.7432z
M101.856 171.629v40.7422h410.144v-40.7422h-410.144z" />
    <glyph glyph-name="uniF132" unicode="&#xf132;" 
d="M376.082 327.918c74.9453 0 135.918 -60.9727 135.918 -135.918s-60.9727 -135.918 -135.918 -135.918h-240.164c-74.9453 0 -135.918 60.9727 -135.918 135.918s60.9727 135.918 135.918 135.918h240.164zM376.082 87.7529c57.4824 0 104.248 46.7646 104.248 104.247
s-46.7656 104.247 -104.248 104.247c-57.4814 0 -104.247 -46.7646 -104.247 -104.247s46.7656 -104.247 104.247 -104.247z" />
    <glyph glyph-name="uniF10E" unicode="&#xf10e;" 
d="M343.859 215.9c73.04 -4.69238 131.028 -65.5957 131.028 -139.799c0 -77.252 -62.8486 -140.102 -140.102 -140.102c-39.7393 0 -75.6631 16.6318 -101.186 43.2979h-152.161l-21.6494 330.148h-22.6777v97.4209h106.495v41.1328h122.568v-41.1328h106.496v-97.4209
h-22.6777zM176.081 415.526v-8.65918h57.6211v8.65918h-57.6211zM69.5859 374.394v-32.4736h270.612v32.4736h-270.612zM111.854 11.7715l98.498 -0.000976562c-10.0059 19.2764 -15.668 41.1533 -15.668 64.3301c0 69.2168 50.457 126.861 116.521 138.105l6.24609 95.2402
h-225.117zM334.786 -31.5264c59.3467 0 107.628 48.2822 107.628 107.628s-48.2812 107.627 -107.628 107.627s-107.628 -48.2803 -107.628 -107.627s48.2812 -107.628 107.628 -107.628zM370.467 134.744l22.9629 -22.9629l-35.6816 -35.6807l35.6816 -35.6797
l-22.9629 -22.9619l-35.6807 35.6807l-35.6807 -35.6807l-22.9619 22.9619l35.6807 35.6797l-35.6807 35.6807l22.9619 22.9629l35.6807 -35.6816z" />
    <glyph glyph-name="uniF110" unicode="&#xf110;" 
d="M329.896 308.124h182.104v-364.206h-512v364.206h182.104v-31.6709h-150.434v-300.865h448.66v300.865h-150.434v31.6709zM181.463 178.164l22.3936 22.3936l36.3086 -36.3076v275.832h31.6699v-275.832l36.3086 36.3076l22.3936 -22.3936l-74.5371 -74.5371z" />
    <glyph glyph-name="uniF131" unicode="&#xf131;" 
d="M376.082 327.918c74.9453 0 135.918 -60.9727 135.918 -135.918s-60.9727 -135.918 -135.918 -135.918h-240.164c-74.9453 0 -135.918 60.9727 -135.918 135.918s60.9727 135.918 135.918 135.918h240.164zM31.6699 192c0 -57.4824 46.7656 -104.247 104.248 -104.247
c57.4814 0 104.247 46.7646 104.247 104.247s-46.7656 104.247 -104.247 104.247c-57.4824 0 -104.248 -46.7646 -104.248 -104.247zM376.082 87.7529c57.4824 0 104.248 46.7646 104.248 104.247s-46.7656 104.247 -104.248 104.247h-153.055
c29.8115 -24.9512 48.8076 -62.4199 48.8076 -104.247s-18.9961 -79.2959 -48.8076 -104.247h153.055z" />
    <glyph glyph-name="uniF111" unicode="&#xf111;" 
d="M402.132 325.996l-146.132 -160.126l-146.133 160.126h62.2812v122.004h167.703v-122.004h62.2803zM203.818 294.326h-22.1719l74.3535 -81.4746l74.3525 81.4746h-22.1719v122.004h-104.362v-122.004zM0 120.742h512v-184.742h-512v184.742zM480.33 -32.3301v121.402
h-448.66v-121.402h448.66zM332.536 28.3711c0 10.5566 5.27832 15.835 15.835 15.835s15.835 -5.27832 15.835 -15.835s-5.27832 -15.835 -15.835 -15.835s-15.835 5.27832 -15.835 15.835zM406.433 28.3711c0 10.5566 5.27832 15.835 15.835 15.835
c10.5573 0 15.8359 -5.27832 15.8359 -15.835s-5.27866 -15.835 -15.8359 -15.835c-10.5566 0 -15.835 5.27832 -15.835 15.835z" />
    <glyph glyph-name="uniF119" unicode="&#xf119;" 
d="M268.318 436.653c134.367 0 243.682 -109.313 243.682 -243.681s-109.314 -243.682 -243.682 -243.682c-39.2314 0 -78.2285 9.54883 -112.776 27.6152c-26.5225 13.8691 -50.4717 32.7646 -70.2939 55.2822l-85.248 -84.8418v220.345h221.402l-107.607 -107.094
c38.4785 -44.8008 95.0605 -71.1123 154.523 -71.1123c112.203 0 203.486 91.2822 203.486 203.486c0 112.203 -91.2832 203.486 -203.486 203.486c-78.5693 0 -148.735 -43.9219 -183.115 -114.625l-36.1475 17.5781c19.7021 40.5176 50.2266 74.7773 88.2686 99.0723
c39.1025 24.9707 84.3984 38.1699 130.994 38.1699zM40.1953 127.496v-83.4385l83.8379 83.4385h-83.8379z" />
    <glyph glyph-name="uniF10B" unicode="&#xf10b;" 
d="M489.743 174.653c14.0625 -21.4404 22.2568 -47.0605 22.2568 -74.5615c0 -75.165 -61.1523 -136.317 -136.318 -136.317c-69.8223 0 -127.542 52.7686 -135.397 120.52h-134.158c-58.5186 0 -106.126 47.6074 -106.126 106.126c0 53.917 40.417 98.5732 92.5488 105.261
c14.7188 71.8613 78.2715 124.546 152.918 124.546c74.6484 0 138.201 -52.6846 152.92 -124.546c52.1299 -6.6875 92.5488 -51.3438 92.5488 -105.261c0 -5.25586 -0.40625 -10.5332 -1.19238 -15.7666zM31.5967 190.42c0 -41.0957 33.4336 -74.5303 74.5293 -74.5303
h134.157c7.85547 67.75 65.5752 120.52 135.397 120.52c30.3789 0 58.4658 -9.99219 81.1553 -26.8584c-8.46875 31.8545 -37.5479 55.3984 -72.0322 55.3984h-14.042l-1.64746 13.9443c-7.39062 62.5605 -60.5479 109.736 -123.647 109.736
c-63.0977 0 -116.255 -47.1758 -123.646 -109.736l-1.64746 -13.9443h-14.042c-41.0986 0 -74.5342 -33.4336 -74.5342 -74.5293zM375.682 -4.62988c57.7441 0 104.722 46.9766 104.722 104.721s-46.9775 104.722 -104.722 104.722s-104.723 -46.9785 -104.723 -104.722
s46.9795 -104.721 104.723 -104.721zM391.479 164.987v-49.0977h49.0977v-31.5967h-49.0977v-49.0967h-31.5967v49.0967h-49.0967v31.5967h49.0967v49.0977h31.5967z" />
    <glyph glyph-name="uniF10C" unicode="&#xf10c;" 
d="M489.743 174.653c14.0625 -21.4404 22.2568 -47.0605 22.2568 -74.5615c0 -75.165 -61.1523 -136.317 -136.318 -136.317c-69.8223 0 -127.542 52.7686 -135.397 120.52h-134.158c-58.5186 0 -106.126 47.6074 -106.126 106.126c0 53.917 40.4189 98.5732 92.5488 105.26
c14.7188 71.8623 78.2705 124.547 152.918 124.547c74.6484 0 138.201 -52.6846 152.92 -124.546c52.1299 -6.6875 92.5488 -51.3438 92.5488 -105.261c0 -5.25586 -0.40625 -10.5332 -1.19238 -15.7666zM31.5967 190.42c0 -41.0957 33.4336 -74.5303 74.5293 -74.5303
h134.157c7.85547 67.75 65.5742 120.52 135.397 120.52c30.3789 0 58.4658 -9.99219 81.1553 -26.8584c-8.46875 31.8545 -37.5479 55.3984 -72.0322 55.3984h-14.042l-1.64746 13.9443c-7.39062 62.5605 -60.5479 109.736 -123.647 109.736
s-116.255 -47.1768 -123.646 -109.736l-1.64746 -13.9443h-14.042c-41.0986 0 -74.5342 -33.4336 -74.5342 -74.5293zM375.682 -4.62988c57.7441 0 104.722 46.9766 104.722 104.721s-46.9775 104.722 -104.722 104.722s-104.723 -46.9785 -104.723 -104.722
s46.9785 -104.721 104.723 -104.721zM410.398 157.15l22.3428 -22.3418l-34.7178 -34.7168l34.7178 -34.7168l-22.3428 -22.3428l-34.7168 34.7178l-34.7178 -34.7178l-22.3418 22.3428l34.7178 34.7168l-34.7178 34.7168l22.3418 22.3418l34.7178 -34.7178z" />
    <glyph glyph-name="uniF118" unicode="&#xf118;" 
d="M387.401 49.7969c44.8018 38.4785 71.1133 95.0586 71.1133 154.521c0 112.203 -91.2822 203.486 -203.486 203.486c-112.203 0 -203.486 -91.2832 -203.486 -203.487c0 -78.5684 43.9219 -148.734 114.625 -183.114l-17.5781 -36.1475
c-40.5176 19.7031 -74.7773 50.2266 -99.0723 88.2695c-24.9707 39.1016 -38.1699 84.3975 -38.1699 130.993c0 134.367 109.316 243.682 243.682 243.682c134.366 0 243.682 -109.314 243.681 -243.682c0 -39.2305 -9.54883 -78.2275 -27.6152 -112.775
c-13.8691 -26.5225 -32.7646 -50.4717 -55.2822 -70.293l84.8418 -85.249h-220.345v221.403zM320.504 -23.8047h83.4365l-83.4365 83.8379v-83.8379z" />
    <glyph glyph-name="uniF134" unicode="&#xf134;" 
d="M328.963 295.6h179.8v-359.6h-505.524v359.6h179.8v-31.2695h-148.53v-297.061h442.985v297.061h-148.53v31.2695zM240.366 388.143l-35.8496 -35.8486l-22.1113 22.1113l73.5957 73.5947l73.5938 -73.5947l-22.1113 -22.1113l-35.8477 35.8486v-272.343h-31.2695
v272.343z" />
    <glyph glyph-name="uniF135" unicode="&#xf135;" 
d="M172.148 164.42l0.000976562 122.004h-62.2812l146.132 160.126l146.133 -160.126h-62.2812v-122.004h-167.703zM256 399.568l-74.3535 -81.4746h22.1719v-122.004h104.363v122.004h22.1729zM0 122.192h512v-184.742h-512v184.742zM480.33 -30.8799v121.402h-448.66
v-121.402h448.66zM332.536 29.8213c0 10.5566 5.27832 15.835 15.835 15.835s15.835 -5.27832 15.835 -15.835s-5.27832 -15.835 -15.835 -15.835s-15.835 5.27832 -15.835 15.835zM406.433 29.8213c0 10.5566 5.27832 15.835 15.835 15.835
c10.5573 0 15.8359 -5.27832 15.8359 -15.835s-5.27866 -15.835 -15.8359 -15.835c-10.5566 0 -15.835 5.27832 -15.835 15.835z" />
    <glyph glyph-name="uniF105" unicode="&#xf105;" 
d="M415.48 308.394c54.3672 -6.97363 96.5195 -53.5449 96.5195 -109.777c0 -61.0293 -49.6504 -110.68 -110.68 -110.68h-128.845v-142.221h-32.9521v142.221h-128.844c-61.0293 0 -110.68 49.6504 -110.68 110.68c0 56.2324 42.1514 102.804 96.5195 109.778
c15.3506 74.9453 81.6299 129.89 159.479 129.89c77.8516 0 144.131 -54.9443 159.481 -129.891zM401.32 120.89c42.8594 0 77.7266 34.8682 77.7266 77.7266c0 42.8594 -34.8721 77.7275 -77.7324 77.7275h-14.6445l-1.71777 14.543
c-7.70801 65.2441 -63.1455 114.444 -128.953 114.444c-65.8057 0 -121.243 -49.2002 -128.952 -114.444l-1.71777 -14.543h-14.6445c-42.8623 0 -77.7324 -34.8682 -77.7324 -77.7275c0 -42.8584 34.8682 -77.7266 77.7295 -77.7266h128.844v102.443l-37.7783 -37.7783
l-23.3008 23.3008l77.5547 77.5557l77.5537 -77.5557l-23.2998 -23.3008l-37.7793 37.7783v-102.443h128.845z" />
    <glyph glyph-name="uniF106" unicode="&#xf106;" 
d="M415.48 237.284c54.3682 -6.97559 96.5195 -53.5469 96.5205 -109.778c0 -61.0283 -49.6504 -110.679 -110.68 -110.679h-290.642c-61.0293 0 -110.68 49.6504 -110.68 110.679c0 56.2314 42.1514 102.803 96.5195 109.778
c15.3506 74.9443 81.6299 129.891 159.481 129.891c77.8506 0 144.129 -54.9463 159.479 -129.891zM401.32 49.7793c42.8594 0 77.7266 34.8682 77.7266 77.7266c0 42.8594 -34.8721 77.7275 -77.7324 77.7275h-14.6445l-1.71777 14.543
c-7.70801 65.2441 -63.1455 114.444 -128.953 114.444c-65.8066 0 -121.243 -49.2002 -128.952 -114.444l-1.71777 -14.543h-14.6445c-42.8623 0 -77.7324 -34.8682 -77.7324 -77.7275c0 -42.8584 34.8682 -77.7266 77.7275 -77.7266h290.641zM327.396 110.191
c0 10.9844 5.49185 16.4766 16.4756 16.4766c10.9844 0 16.4766 -5.49219 16.4766 -16.4766c0 -10.9837 -5.49219 -16.4756 -16.4766 -16.4756c-10.9837 0 -16.4756 5.49186 -16.4756 16.4756zM151.65 110.191c0 10.9844 5.49187 16.4766 16.4756 16.4766
c10.9844 0 16.4766 -5.49219 16.4766 -16.4766c0 -10.9837 -5.49219 -16.4756 -16.4766 -16.4756c-10.9837 0 -16.4756 5.49186 -16.4756 16.4756zM239.523 110.191c0 10.9844 5.49187 16.4766 16.4756 16.4766c10.9844 0 16.4766 -5.49219 16.4766 -16.4766
c0 -10.9837 -5.49219 -16.4756 -16.4766 -16.4756c-10.9837 0 -16.4756 5.49186 -16.4756 16.4756z" />
    <glyph glyph-name="uniF107" unicode="&#xf107;" 
d="M415.48 237.284c54.3682 -6.97559 96.5195 -53.5469 96.5205 -109.778c0 -61.0283 -49.6504 -110.679 -110.68 -110.679h-290.642c-61.0293 0 -110.68 49.6504 -110.68 110.679c0 56.2314 42.1514 102.803 96.5195 109.778
c15.3506 74.9443 81.6299 129.891 159.481 129.891c77.8506 0 144.129 -54.9463 159.479 -129.891zM401.32 49.7793c42.8594 0 77.7266 34.8682 77.7266 77.7266c0 42.8594 -34.8721 77.7275 -77.7324 77.7275h-14.6445l-1.71777 14.543
c-7.70801 65.2441 -63.1455 114.444 -128.953 114.444c-65.8066 0 -121.243 -49.2002 -128.952 -114.444l-1.71777 -14.543h-14.6445c-42.8623 0 -77.7324 -34.8682 -77.7324 -77.7275c0 -42.8584 34.8682 -77.7266 77.7275 -77.7266h290.641zM222.382 264.636
l23.2998 -23.3008l-65.2383 -65.2383l65.2383 -65.2393l-23.2998 -23.3008l-88.5391 88.54zM266.318 241.335l23.2998 23.3008l88.5391 -88.5391l-88.5391 -88.54l-23.2998 23.3008l65.2383 65.2393z" />
    <glyph glyph-name="uniF108" unicode="&#xf108;" 
d="M489.743 174.653c14.0625 -21.4404 22.2568 -47.0605 22.2568 -74.5615c0 -75.165 -61.1523 -136.317 -136.318 -136.317c-69.8223 0 -127.542 52.7686 -135.397 120.52h-134.158c-58.5186 0 -106.126 47.6074 -106.126 106.126c0 53.917 40.417 98.5732 92.5488 105.26
c14.7197 71.8623 78.2705 124.547 152.918 124.547c74.6484 0 138.2 -52.6846 152.92 -124.546c52.1318 -6.6875 92.5488 -51.3438 92.5488 -105.261c0 -5.25391 -0.40625 -10.5322 -1.19238 -15.7666zM31.5967 190.42c0 -41.0957 33.4336 -74.5303 74.5293 -74.5303
h134.157c7.85547 67.75 65.5752 120.52 135.397 120.52c30.3789 0 58.4658 -9.99219 81.1553 -26.8584c-8.46875 31.8545 -37.5479 55.3984 -72.0322 55.3984h-14.042l-1.64746 13.9443c-7.3916 62.5605 -60.5488 109.736 -123.647 109.736
c-63.0977 0 -116.255 -47.1758 -123.646 -109.736l-1.64746 -13.9443h-14.042c-41.0986 0 -74.5342 -33.4336 -74.5342 -74.5293zM375.682 -4.62988c57.7441 0 104.722 46.9766 104.722 104.721s-46.9795 104.722 -104.722 104.722
c-57.7432 0 -104.721 -46.9785 -104.721 -104.722s46.9766 -104.721 104.721 -104.721zM310.787 84.293v31.5967h129.791v-31.5967h-129.791z" />
    <glyph glyph-name="uniF10A" unicode="&#xf10a;" 
d="M415.48 237.284c54.3672 -6.97559 96.5195 -53.5469 96.5195 -109.778c0 -61.0283 -49.6504 -110.679 -110.68 -110.679h-290.641c-61.0293 0 -110.68 49.6504 -110.68 110.679c0 56.2314 42.1514 102.803 96.5195 109.778
c15.3516 74.9443 81.6309 129.891 159.481 129.891c77.8496 0 144.128 -54.9463 159.479 -129.891zM401.32 49.7793c42.8594 0 77.7266 34.8682 77.7266 77.7266c0 42.8594 -34.8721 77.7275 -77.7324 77.7275h-14.6445l-1.71777 14.543
c-7.70898 65.2441 -63.1465 114.445 -128.953 114.445c-65.8057 0 -121.243 -49.2012 -128.952 -114.445l-1.71777 -14.543h-14.6445c-42.8623 0 -77.7324 -34.8682 -77.7324 -77.7275c0 -42.8584 34.8682 -77.7266 77.7275 -77.7266h290.641zM187.349 148.637v98.8564
h137.302v-126.317h-0.466797c0.301758 -1.78711 0.466797 -3.62012 0.466797 -5.49219c0 -18.1699 -14.7822 -32.9521 -32.9521 -32.9521s-32.9531 14.7822 -32.9531 32.9521s14.7832 32.9531 32.9531 32.9531v65.9043h-71.3975v-93.3652h-0.466797
c0.302734 -1.78711 0.466797 -3.62012 0.466797 -5.49219c0 -18.1699 -14.7822 -32.9521 -32.9521 -32.9521s-32.9521 14.7822 -32.9521 32.9521s14.7822 32.9531 32.9521 32.9531z" />
    <glyph glyph-name="uniF101" unicode="&#xf101;" 
d="M0 62.5938v33.7578h512v-33.7578h-512zM0 175.121v33.7578h512v-33.7578h-512zM0 287.648v33.7578h512v-33.7578h-512z" />
    <glyph glyph-name="uniF133" unicode="&#xf133;" 
d="M0 -56.7236v31.6709h512v-31.6709h-512zM240.165 380.1l-36.3086 -36.3076l-22.3936 22.3936l74.5371 74.5381l74.5371 -74.5381l-22.3936 -22.3936l-36.3086 36.3076v-357.647h-31.6699v357.647z" />
    <glyph glyph-name="uniF102" unicode="&#xf102;" 
d="M394.557 309.443c64.7588 0 117.442 -52.6855 117.442 -117.443s-52.6846 -117.443 -117.443 -117.443c-45.7852 0 -85.5303 26.3398 -104.893 64.6602h-67.3271c-19.3613 -38.3203 -59.1074 -64.6602 -104.893 -64.6602c-64.7578 0 -117.443 52.6855 -117.443 117.443
s52.6855 117.443 117.443 117.443c43.6494 0 81.8105 -23.9385 102.053 -59.374l20.6689 9.94531v32.2744h31.6699v-32.2734l20.6689 -9.94531c20.2422 35.4346 58.4033 59.373 102.053 59.373zM117.443 106.227c47.2949 0 85.7734 38.4785 85.7734 85.7734
s-38.4785 85.7734 -85.7734 85.7734s-85.7734 -38.4785 -85.7734 -85.7734s38.4785 -85.7734 85.7734 -85.7734zM232.981 170.887h46.0371c-1.24805 6.85156 -1.90527 13.9072 -1.90527 21.1133c0 9.87305 1.23145 19.4609 3.53516 28.6289l-24.6484 11.8604
l-24.6484 -11.8604c2.30371 -9.16797 3.53516 -18.7559 3.53516 -28.6289c0 -7.20605 -0.65625 -14.2617 -1.90527 -21.1133zM394.557 106.227c47.2959 0 85.7734 38.4785 85.7734 85.7734s-38.4775 85.7734 -85.7734 85.7734s-85.7734 -38.4785 -85.7734 -85.7734
s38.4775 -85.7734 85.7734 -85.7734z" />
    <glyph glyph-name="uniF11A" unicode="&#xf11a;" 
d="M462.483 310.675c24.9697 -39.1016 38.1699 -84.3975 38.1699 -130.992c0 -134.366 -109.315 -243.682 -243.682 -243.682c-134.367 0 -243.682 109.315 -243.682 243.682c0 39.2305 9.54883 78.2275 27.6152 112.775c13.8701 26.5225 32.7646 50.4717 55.2832 70.2939
l-84.8418 85.248h220.345v-221.402l-107.094 107.607c-44.8008 -38.4785 -71.1123 -95.0605 -71.1123 -154.523c0 -112.202 91.2852 -203.485 203.487 -203.485s203.486 91.2832 203.486 203.486c0 78.5684 -43.9209 148.733 -114.624 183.114l17.5771 36.1475
c40.5176 -19.7031 74.7764 -50.2266 99.0713 -88.2695zM191.496 407.805h-83.4385l83.4385 -83.8379v83.8379z" />
    <glyph glyph-name="uniF127" unicode="&#xf127;" 
d="M239.255 225.74v222.26h33.4912v-222.26h-33.4912zM340.968 335.589c75.2305 -33.5537 123.84 -108.438 123.84 -190.781c0 -115.138 -93.6699 -208.809 -208.809 -208.809c-115.138 0 -208.808 93.6719 -208.808 208.809c0 82.3428 48.6094 157.228 123.84 190.779
l13.6416 -30.5869c-63.1709 -28.1738 -103.989 -91.0537 -103.989 -160.192c0 -96.6699 78.6445 -175.315 175.314 -175.315c96.6709 0 175.317 78.6465 175.317 175.316c0 69.1387 -40.8193 132.019 -103.99 160.193z" />
    <glyph glyph-name="uniF12A" unicode="&#xf12a;" 
d="M418.508 368.465c21.0088 -18.4932 38.6377 -40.8379 51.5781 -65.584c16.8555 -32.2314 25.7646 -68.6152 25.7646 -105.217c0 -125.362 -101.988 -227.351 -227.351 -227.351v37.502c104.684 0 189.85 85.165 189.85 189.849
c0 55.4785 -24.5469 108.268 -66.3477 144.167l-99.916 -100.396v206.564h205.577zM329.588 410.499v-78.2197l77.8447 78.2197h-77.8447zM16.1494 186.336c0 125.36 101.989 227.351 227.351 227.35v-37.502c-104.684 0 -189.85 -85.165 -189.85 -189.849
c0 -55.4785 24.5469 -108.267 66.3477 -144.166l99.916 100.396v-206.563h-205.577l79.1553 79.5352c-21.0098 18.4932 -38.6377 40.8379 -51.5781 65.583c-16.8555 32.2324 -25.7646 68.6152 -25.7646 105.217zM182.412 -26.499v78.2197l-77.8447 -78.2197h77.8447z" />
    <glyph glyph-name="uniF12E" unicode="&#xf12e;" 
d="M512 -41.4023l-22.5977 -22.5986l-136.121 136.121c-37.4658 -32.2852 -86.2041 -51.832 -139.426 -51.832c-117.92 0 -213.855 95.9355 -213.855 213.856c0 117.92 95.9355 213.855 213.855 213.855c117.921 0 213.855 -95.9355 213.856 -213.855
c0 -53.2217 -19.5469 -101.96 -51.832 -139.426zM31.96 234.145c0 -100.298 81.5977 -181.896 181.896 -181.896s181.896 81.5986 181.896 181.896s-81.5986 181.896 -181.896 181.896s-181.896 -81.5977 -181.896 -181.896z" />
    <glyph glyph-name="uniF109" unicode="&#xf109;" 
d="M512 222.044c0 -29.0176 -14.6982 -55.0654 -38.1445 -70.1055c11.498 -16.9883 18.2217 -37.457 18.2217 -59.4697c0 -58.6543 -47.7178 -106.373 -106.372 -106.373h-279.333c-58.6533 0 -106.372 47.7188 -106.372 106.373c0 54.042 40.5127 98.8018 92.7637 105.504
c12.3887 60.4873 59.2969 107.413 118.32 120.9c17.3037 46.9961 62.5645 79.0312 113.346 79.0312c56.7793 0 105.258 -39.4072 117.684 -93.5732c39.583 -6.46973 69.8867 -40.9053 69.8867 -82.2871zM324.43 366.234c-31.8281 0 -60.7031 -17.0615 -76.502 -43.4443
c74 -0.882812 136.754 -53.3945 151.383 -124.815c19.6611 -2.52246 37.6582 -10.4355 52.4609 -22.2012c17.3691 8.62988 28.5576 26.3232 28.5576 46.2715c0 28.5107 -23.1973 51.707 -51.7109 51.707h-14.0742l-1.65137 13.9775
c-5.28711 44.7549 -43.3174 78.5049 -88.4629 78.5049zM385.704 17.7656c41.1914 0 74.7012 33.5117 74.7012 74.7031c0 41.1904 -33.5146 74.7021 -74.708 74.7021h-14.0742l-1.65039 13.9766c-7.4082 62.7061 -60.6885 109.991 -123.935 109.991
c-63.2471 0 -116.526 -47.2861 -123.935 -109.991l-1.65137 -13.9766h-14.0742c-41.1943 0 -74.708 -33.5117 -74.708 -74.7021c0 -41.1914 33.5117 -74.7031 74.7021 -74.7031h279.332z" />
    <glyph glyph-name="uniF104" unicode="&#xf104;" 
d="M414.283 319.085c53.9609 -6.92285 95.7959 -53.1455 95.7939 -108.954c0 -60.5713 -49.2783 -109.85 -109.85 -109.85h-127.877v-101.676l37.4951 37.4941l23.126 -23.126l-76.9727 -76.9736l-76.9727 76.9736l23.126 23.126l37.4951 -37.4941v101.676h-127.877
c-60.5713 0 -109.85 49.2783 -109.85 109.85c0 55.8086 41.835 102.031 95.7959 108.954c15.2354 74.3828 81.0176 128.915 158.283 128.915s143.048 -54.5322 158.283 -128.915zM400.229 132.985c42.5381 0 77.1445 34.6074 77.1445 77.1455
c0 42.5371 -34.6104 77.1436 -77.1494 77.1436h-14.5342l-1.70508 14.4346c-7.65137 64.7549 -62.6729 113.586 -127.985 113.586s-120.334 -48.8311 -127.985 -113.588l-1.70508 -14.4336h-14.5342c-42.541 0 -77.1494 -34.6064 -77.1494 -77.1436
c0 -42.5381 34.6064 -77.1445 77.1445 -77.1445h127.877v141.155h32.7051v-141.155h127.877z" />
    <glyph glyph-name="uniF129" unicode="&#xf129;" 
d="M415.812 362.752c22.5186 -19.8223 41.4131 -43.7715 55.2832 -70.2939c18.0664 -34.5479 27.6152 -73.5459 27.6152 -112.776c0 -134.367 -109.314 -243.682 -243.682 -243.682c-134.366 0 -243.682 109.314 -243.682 243.682
c0 46.5957 13.1992 91.8916 38.1699 130.993c24.2949 38.043 58.5547 68.5664 99.0723 88.2686l17.5781 -36.1475c-70.7031 -34.3799 -114.625 -104.545 -114.625 -183.114c0 -112.203 91.2832 -203.486 203.486 -203.486s203.486 91.2832 203.486 203.486
c0 59.4629 -26.3096 116.045 -71.1133 154.523l-107.093 -107.607v221.402h220.345zM320.504 407.805v-83.8379l83.4365 83.8379h-83.4365z" />
    <glyph glyph-name="uniF115" unicode="&#xf115;" 
d="M425.453 334.271l-32.3877 -88.9873l-14.8359 5.39941l-20.6348 -314.683h-240.01l-23.1133 352.493h179.872l-187.797 68.3525l32.3906 88.9883l97.2773 -35.4062l13.6748 37.5723l111.96 -40.749l-13.6758 -37.5742zM328.029 -32.4336l18.9746 289.36h-218.829
l18.9746 -289.36h180.88zM248.757 407.541l-2.87988 -7.91113l52.6348 -19.1572l2.87793 7.91113zM374.197 285.741l10.7969 29.6631l-247.19 89.9707l-10.7969 -29.6631z" />
    <glyph glyph-name="uniF114" unicode="&#xf114;" 
d="M439.279 403.067v-106.421h-24.7734l-23.6484 -360.646h-269.715l-23.6484 360.646h-24.7734v106.421h116.334v44.9326h133.891v-44.9326h116.334zM224.528 412.526v-9.45898h62.9434v9.45898h-62.9434zM108.194 367.594v-35.4736h295.611v35.4736h-295.611z
M357.633 -28.5264l21.3242 325.173h-245.913l21.3232 -325.173h203.266z" />
    <glyph glyph-name="uniF113" unicode="&#xf113;" 
d="M425.453 334.271l-32.3896 -88.9873l-13.4248 4.88574v-314.169h-284.1v352.493h178.805l-187.797 68.3525l32.3906 88.9883l97.2773 -35.4062l13.6748 37.5723l111.96 -40.749l-13.6758 -37.5742zM263.895 256.927h-52.6113v-289.36h52.6113v289.36zM127.105 256.927
v-289.36h52.6113v289.36h-52.6113zM348.071 -32.4336v289.36h-52.6104v-289.36h52.6104zM248.756 407.541l-2.87891 -7.91016l52.6338 -19.1582l2.87891 7.91113zM374.197 285.741l10.7969 29.6631l-247.191 89.9707l-10.7969 -29.6631z" />
    <glyph glyph-name="uniF11B" unicode="&#xf11b;" 
d="M247.442 139.856l36.3076 36.3086h-275.832v31.6699h275.832l-36.3076 36.3086l22.3936 22.3936l74.5371 -74.5371l-74.5371 -74.5371zM139.876 448h364.206v-512h-364.206v182.104h31.6709v-150.434h300.865v448.66h-300.865v-150.434h-31.6709v182.104z" />
    <glyph glyph-name="uniF12C" unicode="&#xf12c;" 
d="M424.061 179.834c56.3369 -56.3369 87.5664 -131.237 87.9395 -210.904l-49.5264 -0.230469c-0.310547 66.5234 -26.3896 129.069 -73.4316 176.112c-51.8115 51.8105 -124.034 78.1846 -196.59 72.6719l0.447266 -187.062l-192.899 192.901l191.977 191.978
l0.354492 -148.191c36.8887 2.34961 74.2188 -2.05566 109.411 -13.0781c45.8398 -14.3594 88.1367 -40.0176 122.318 -74.1973zM70.04 223.323l73.0449 -73.0449l-0.347656 145.739z" />
    <glyph glyph-name="uniF12F" unicode="&#xf12f;" 
d="M312.343 332.632c26.2705 -26.2695 40.7383 -61.2461 40.7383 -98.4873c0 -37.2422 -14.4688 -72.2188 -40.7383 -98.4883l-22.5986 22.5986c20.2334 20.2334 31.377 47.1855 31.377 75.8896c0 28.7031 -11.1436 55.6553 -31.377 75.8887
s-47.1855 31.377 -75.8896 31.377s-55.6553 -11.1436 -75.8887 -31.377l-22.5986 22.5986c26.2695 26.2695 61.2461 40.7383 98.4873 40.7383c37.2422 0 72.2188 -14.4688 98.4883 -40.7383zM512 -41.4023l-22.5977 -22.5986l-136.121 136.121
c-37.4658 -32.2852 -86.2041 -51.832 -139.426 -51.832c-117.92 0 -213.855 95.9355 -213.855 213.856c0 117.92 95.9355 213.855 213.855 213.855c117.921 0 213.855 -95.9355 213.856 -213.855c0 -53.2217 -19.5469 -101.96 -51.832 -139.426zM31.96 234.145
c0 -100.298 81.5977 -181.896 181.896 -181.896s181.896 81.5986 181.896 181.896s-81.5986 181.896 -181.896 181.896s-181.896 -81.5977 -181.896 -181.896z" />
    <glyph glyph-name="uniF10D" unicode="&#xf10d;" 
d="M351.023 215.257c69.6309 -8.07422 123.864 -67.3945 123.864 -139.155c0 -77.252 -62.8486 -140.102 -140.102 -140.102c-39.7373 0 -75.6621 16.6318 -101.185 43.2979h-174.841v330.148h-21.6484v97.4209h106.495v41.1328h122.568v-41.1328h106.496v-97.4209h-21.6484
v-94.1895zM318.55 215.257v94.1895h-54.123v-112.233c16.2568 9.48047 34.582 15.7783 54.123 18.0439zM176.081 415.526v-8.65918h57.6211v8.65918h-57.6211zM69.5859 374.394v-32.4736h270.612v32.4736h-270.612zM91.2344 309.446v-297.675h54.123v297.675h-54.123z
M177.831 11.7715h32.5234c-10.0068 19.2764 -15.6689 41.1543 -15.6689 64.3301c0 36.6475 14.1514 70.0488 37.2676 95.042v138.303h-54.1221v-297.675zM334.786 -31.5264c59.3467 0 107.628 48.2822 107.628 107.628s-48.2822 107.627 -107.628 107.627
s-107.627 -48.2803 -107.627 -107.627s48.2803 -107.628 107.627 -107.628zM370.467 134.744l22.9629 -22.9629l-35.6816 -35.6807l35.6816 -35.6797l-22.9629 -22.9619l-35.6807 35.6807l-35.6797 -35.6807l-22.9619 22.9619l35.6807 35.6797l-35.6807 35.6807
l22.9619 22.9629l35.6797 -35.6816z" />
  </font>
</defs>
</svg>
